<svg xmlns="http://www.w3.org/2000/svg" width="108.231" height="30.055" viewBox="0 0 108.231 30.055">
  <path id="Path_674" data-name="Path 674" d="M91.3,83.157a.4.4,0,0,1,.419-.432h13.348a.4.4,0,0,1,.419.432V88.4a.4.4,0,0,1-.419.432H98.23a.227.227,0,0,0-.253.259V93.9a.227.227,0,0,0,.253.259h5.875a.4.4,0,0,1,.419.432v5.24a.4.4,0,0,1-.419.432H98.23a.227.227,0,0,0-.253.259v5.068a.227.227,0,0,0,.253.259h6.837a.4.4,0,0,1,.419.432v5.24a.4.4,0,0,1-.419.432H91.719a.4.4,0,0,1-.419-.432Zm16.412,0a.4.4,0,0,1,.419-.432h5.58a.609.609,0,0,1,.629.432l3.9,14.174h.166l3.779-14.174a.614.614,0,0,1,.629-.432h5.543a.4.4,0,0,1,.419.432V111.5a.4.4,0,0,1-.419.432h-5.037a.4.4,0,0,1-.419-.432V96.431h-.21l-2.515,9.877a.5.5,0,0,1-.506.432h-2.854a.5.5,0,0,1-.506-.432L113.8,96.431h-.21V111.5a.4.4,0,0,1-.419.432h-5.037a.4.4,0,0,1-.419-.432Zm23.748,0a.4.4,0,0,1,.419-.432h13.348a.4.4,0,0,1,.419.432V88.4a.4.4,0,0,1-.419.432H138.39a.227.227,0,0,0-.253.259V93.9a.227.227,0,0,0,.253.259h5.875a.4.4,0,0,1,.419.432v5.24a.4.4,0,0,1-.419.432H138.39a.227.227,0,0,0-.253.259v5.068a.227.227,0,0,0,.253.259h6.837a.4.4,0,0,1,.419.432v5.24a.4.4,0,0,1-.419.432H131.88a.4.4,0,0,1-.419-.432Zm26.732,8.8c0-2.663-.752-3.477-2.435-3.477H154.8a.227.227,0,0,0-.253.259v6.4a.227.227,0,0,0,.253.259h.962c1.683-.006,2.435-.82,2.435-3.44m1,19.969a.515.515,0,0,1-.549-.388l-2.9-10.524h-.962a.227.227,0,0,0-.253.259V111.5a.4.4,0,0,1-.419.432h-5.832a.4.4,0,0,1-.419-.432V83.157a.4.4,0,0,1,.419-.432H156.3c5.117,0,8.564,2.663,8.564,9.236,0,3.564-1.134,5.925-2.978,7.386l3.736,12.152c.086.216,0,.432-.21.432H159.2Zm7.639-14.6c0-6.954.21-8.416.629-9.747,1.134-3.52,3.65-5.284,7.762-5.284,5.2,0,7.972,2.965,8.224,7.818,0,.3-.086.469-.333.512l-5.623.943a.365.365,0,0,1-.462-.388c-.043-2.016-.586-2.793-1.72-2.793a1.353,1.353,0,0,0-1.424,1.03c-.166.6-.21,1.03-.21,7.9s.043,7.3.21,7.9a1.362,1.362,0,0,0,1.424,1.03c1.134,0,1.677-.771,1.72-2.793a.365.365,0,0,1,.462-.388l5.623.943c.253.043.333.216.333.518-.253,4.852-3.021,7.818-8.224,7.818-4.112,0-6.628-1.763-7.762-5.284-.419-1.326-.629-2.787-.629-9.741m18.508-14.174a.4.4,0,0,1,.419-.432h13.348a.4.4,0,0,1,.419.432V88.4a.4.4,0,0,1-.419.432h-6.837a.227.227,0,0,0-.253.259V93.9a.227.227,0,0,0,.253.259h5.875a.4.4,0,0,1,.419.432v5.24a.4.4,0,0,1-.419.432h-5.875a.227.227,0,0,0-.253.259v5.068a.227.227,0,0,0,.253.259h6.837a.4.4,0,0,1,.419.432v5.24a.4.4,0,0,1-.419.432H185.764a.4.4,0,0,1-.419-.432V83.157Z" transform="translate(-91.3 -82.3)" fill="#fff"/>
</svg>
