<?xml version="1.0" encoding="utf-8"?>
<!-- Generator: Adobe Illustrator 26.3.1, SVG Export Plug-In . SVG Version: 6.00 Build 0)  -->
<svg version="1.1" id="Laag_1" xmlns="http://www.w3.org/2000/svg" xmlns:xlink="http://www.w3.org/1999/xlink" x="0px" y="0px"
	 viewBox="0 0 1938.3 648.8" style="enable-background:new 0 0 1938.3 648.8;" xml:space="preserve">
<style type="text/css">
	.st0{fill:#CB0003;}
	.st1{fill:#FFFFFF;}
</style>
<g>
	<rect class="st0" width="1938.3" height="648.8"/>
	<g>
		<path class="st1" d="M91.3,96.2c0-4.2,2.7-7,6.8-7h216.5c4.1,0,6.8,2.8,6.8,7v85c0,4.2-2.7,7-6.8,7H203.7c-2.7,0-4.1,1.4-4.1,4.2
			v78c0,2.8,1.4,4.2,4.1,4.2H299c4.1,0,6.8,2.8,6.8,7v85c0,4.2-2.7,7-6.8,7h-95.3c-2.7,0-4.1,1.4-4.1,4.2V460c0,2.8,1.4,4.2,4.1,4.2
			h110.9c4.1,0,6.8,2.8,6.8,7v85c0,4.2-2.7,7-6.8,7H98.1c-4.1,0-6.8-2.8-6.8-7V96.2z"/>
		<path class="st1" d="M357.5,96.2c0-4.2,2.7-7,6.8-7h90.5c5.4,0,8.9,2.8,10.2,7l63.3,229.9h2.7l61.3-229.9c1.4-4.2,4.8-7,10.2-7
			h89.9c4.1,0,6.8,2.8,6.8,7V556c0,4.2-2.7,7-6.8,7h-81.7c-4.1,0-6.8-2.8-6.8-7V311.5h-3.4l-40.8,160.2c-1.4,4.9-4.1,7-8.2,7h-46.3
			c-4.1,0-6.8-2.1-8.2-7l-40.8-160.2h-3.4V556c0,4.2-2.7,7-6.8,7h-81.7c-4.1,0-6.8-2.8-6.8-7L357.5,96.2L357.5,96.2z"/>
		<path class="st1" d="M742.7,96.2c0-4.2,2.7-7,6.8-7H966c4.1,0,6.8,2.8,6.8,7v85c0,4.2-2.7,7-6.8,7H855.1c-2.7,0-4.1,1.4-4.1,4.2
			v78c0,2.8,1.4,4.2,4.1,4.2h95.3c4.1,0,6.8,2.8,6.8,7v85c0,4.2-2.7,7-6.8,7h-95.3c-2.7,0-4.1,1.4-4.1,4.2V460
			c0,2.8,1.4,4.2,4.1,4.2H966c4.1,0,6.8,2.8,6.8,7v85c0,4.2-2.7,7-6.8,7H749.5c-4.1,0-6.8-2.8-6.8-7V96.2z"/>
		<path class="st1" d="M1176.3,239c0-43.2-12.2-56.4-39.5-56.4h-15.6c-2.7,0-4.1,1.4-4.1,4.2v103.8c0,2.8,1.4,4.2,4.1,4.2h15.6
			C1164.1,294.7,1176.3,281.5,1176.3,239 M1192.6,562.9c-4.8,0-7.5-2.1-8.9-6.3l-47-170.7h-15.6c-2.7,0-4.1,1.4-4.1,4.2v165.8
			c0,4.2-2.7,7-6.8,7h-94.6c-4.1,0-6.8-2.8-6.8-7V96.2c0-4.2,2.7-7,6.8-7h130c83,0,138.9,43.2,138.9,149.8
			c0,57.8-18.4,96.1-48.3,119.8l60.6,197.1c1.4,3.5,0,7-3.4,7H1192.6z"/>
		<path class="st1" d="M1316.5,326.1c0-112.8,3.4-136.5,10.2-158.1c18.4-57.1,59.2-85.7,125.9-85.7c84.4,0,129.3,48.1,133.4,126.8
			c0,4.9-1.4,7.6-5.4,8.3l-91.2,15.3c-4.1,0.7-7.5-1.4-7.5-6.3c-0.7-32.7-9.5-45.3-27.9-45.3c-11.6,0-19.1,4.9-23.1,16.7
			c-2.7,9.7-3.4,16.7-3.4,128.2s0.7,118.4,3.4,128.2c4.1,11.8,11.6,16.7,23.1,16.7c18.4,0,27.2-12.5,27.9-45.3c0-4.9,3.4-7,7.5-6.3
			l91.2,15.3c4.1,0.7,5.4,3.5,5.4,8.4c-4.1,78.7-49,126.8-133.4,126.8c-66.7,0-107.5-28.6-125.9-85.7
			C1319.9,462.6,1316.5,438.9,1316.5,326.1"/>
		<path class="st1" d="M1616.7,96.2c0-4.2,2.7-7,6.8-7H1840c4.1,0,6.8,2.8,6.8,7v85c0,4.2-2.7,7-6.8,7h-110.9
			c-2.7,0-4.1,1.4-4.1,4.2v78c0,2.8,1.4,4.2,4.1,4.2h95.3c4.1,0,6.8,2.8,6.8,7v85c0,4.2-2.7,7-6.8,7h-95.3c-2.7,0-4.1,1.4-4.1,4.2
			V460c0,2.8,1.4,4.2,4.1,4.2H1840c4.1,0,6.8,2.8,6.8,7v85c0,4.2-2.7,7-6.8,7h-216.5c-4.1,0-6.8-2.8-6.8-7V96.2z"/>
	</g>
</g>
</svg>
